<?xml version="1.0" encoding="UTF-8"?>
<svg xmlns="http://www.w3.org/2000/svg" width="1024" height="1024" viewBox="0 0 1024 1024">
  <!-- Background transparent; draw a dark circular badge -->
  <defs>
    <filter id="shadow" x="-20%" y="-20%" width="140%" height="140%">
      <feDropShadow dx="0" dy="8" stdDeviation="8" flood-color="#000000" flood-opacity="0.25"/>
    </filter>
  </defs>

  <!-- Badge -->
  <circle cx="512" cy="512" r="381" fill="#0e131a" filter="url(#shadow)"/>
  <circle cx="512" cy="512" r="341" fill="#0e131a" stroke="#00C8FF" stroke-width="16"/>

  <!-- Timeline -->
  <rect x="192" y="500" width="640" height="24" fill="#FFFFFF" />

  <!-- Ticks -->
  <g stroke="#C8D0D8" stroke-width="3" opacity="0.85">
    <line x1="192" y1="488" x2="192" y2="536" /><line x1="272" y1="488" x2="272" y2="536" /><line x1="352" y1="488" x2="352" y2="536" /><line x1="432" y1="488" x2="432" y2="536" /><line x1="512" y1="488" x2="512" y2="536" /><line x1="592" y1="488" x2="592" y2="536" /><line x1="672" y1="488" x2="672" y2="536" /><line x1="752" y1="488" x2="752" y2="536" /><line x1="832" y1="488" x2="832" y2="536" />
  </g>

  <!-- Waveform -->
  <polyline points="192.0,494.9 194.9,491.6 197.8,489.0 200.7,487.1 203.6,486.0 206.5,485.6 209.5,485.9 212.4,486.7 215.3,487.9 218.2,489.6 221.1,491.4 224.0,493.3 226.9,495.2 229.8,496.9 232.7,498.3 235.6,499.4 238.5,500.0 241.5,500.2 244.4,499.8 247.3,499.0 250.2,497.7 253.1,496.0 256.0,494.0 258.9,491.8 261.8,489.5 264.7,487.3 267.6,485.2 270.5,483.4 273.5,482.0 276.4,481.1 279.3,480.9 282.2,481.4 285.1,482.7 288.0,484.7 290.9,487.6 293.8,491.2 296.7,495.4 299.6,500.3 302.5,505.7 305.5,511.4 308.4,517.4 311.3,523.4 314.2,529.3 317.1,535.0 320.0,540.2 322.9,544.9 325.8,548.9 328.7,552.2 331.6,554.6 334.5,556.1 337.5,556.7 340.4,556.4 343.3,555.3 346.2,553.3 349.1,550.7 352.0,547.6 354.9,543.9 357.8,540.0 360.7,535.9 363.6,531.9 366.5,527.9 369.5,524.2 372.4,520.8 375.3,518.0 378.2,515.6 381.1,513.8 384.0,512.5 386.9,511.8 389.8,511.6 392.7,511.9 395.6,512.5 398.5,513.4 401.5,514.4 404.4,515.4 407.3,516.3 410.2,517.0 413.1,517.4 416.0,517.3 418.9,516.7 421.8,515.5 424.7,513.8 427.6,511.4 430.5,508.5 433.5,505.0 436.4,501.2 439.3,496.9 442.2,492.5 445.1,487.9 448.0,483.5 450.9,479.2 453.8,475.3 456.7,471.9 459.6,469.1 462.5,467.1 465.5,465.8 468.4,465.5 471.3,466.1 474.2,467.5 477.1,469.9 480.0,473.2 482.9,477.2 485.8,481.8 488.7,487.0 491.6,492.5 494.5,498.3 497.5,504.1 500.4,509.9 503.3,515.4 506.2,520.5 509.1,525.1 512.0,529.1 514.9,532.4 517.8,535.0 520.7,536.9 523.6,538.0 526.5,538.4 529.5,538.1 532.4,537.3 535.3,536.1 538.2,534.4 541.1,532.6 544.0,530.7 546.9,528.8 549.8,527.1 552.7,525.7 555.6,524.6 558.5,524.0 561.5,523.8 564.4,524.2 567.3,525.0 570.2,526.3 573.1,528.0 576.0,530.0 578.9,532.2 581.8,534.5 584.7,536.7 587.6,538.8 590.5,540.6 593.5,542.0 596.4,542.9 599.3,543.1 602.2,542.6 605.1,541.3 608.0,539.3 610.9,536.4 613.8,532.8 616.7,528.6 619.6,523.7 622.5,518.3 625.5,512.6 628.4,506.6 631.3,500.6 634.2,494.7 637.1,489.0 640.0,483.8 642.9,479.1 645.8,475.1 648.7,471.8 651.6,469.4 654.5,467.9 657.5,467.3 660.4,467.6 663.3,468.7 666.2,470.7 669.1,473.3 672.0,476.4 674.9,480.1 677.8,484.0 680.7,488.1 683.6,492.1 686.5,496.1 689.5,499.8 692.4,503.2 695.3,506.0 698.2,508.4 701.1,510.2 704.0,511.5 706.9,512.2 709.8,512.4 712.7,512.1 715.6,511.5 718.5,510.6 721.5,509.6 724.4,508.6 727.3,507.7 730.2,507.0 733.1,506.6 736.0,506.7 738.9,507.3 741.8,508.5 744.7,510.2 747.6,512.6 750.5,515.5 753.5,519.0 756.4,522.8 759.3,527.1 762.2,531.5 765.1,536.1 768.0,540.5 770.9,544.8 773.8,548.7 776.7,552.1 779.6,554.9 782.5,556.9 785.5,558.2 788.4,558.5 791.3,557.9 794.2,556.5 797.1,554.1 800.0,550.8 802.9,546.8 805.8,542.2 808.7,537.0 811.6,531.5 814.5,525.7 817.5,519.9 820.4,514.1 823.3,508.6 826.2,503.5 829.1,498.9 832.0,494.9" fill="none" stroke="#00C8FF" stroke-width="10" stroke-linejoin="round" stroke-linecap="round"/>

  <!-- Monogram LTC -->
  <!-- L -->
  <rect x="342" y="332" width="68" height="360" fill="#FFFFFF"/>
  <rect x="342" y="672" width="120" height="20" fill="#FFFFFF"/>

  <!-- T -->
  <rect x="478" y="332" width="68" height="360" fill="#FFFFFF"/>
  <rect x="422" y="332" width="248" height="20" fill="#FFFFFF"/>

  <!-- C (arc) -->
  <path d="M 745 512 
           A 120 120 0 1 1 505 512" 
        fill="none" stroke="#FFFFFF" stroke-width="20" stroke-linecap="round"/>
</svg>
